<svg width="492" height="444" viewBox="0 0 492 444" fill="none" xmlns="http://www.w3.org/2000/svg">
<g filter="url(#filter0_d_593_95)">
<g filter="url(#filter1_d_593_95)">
<path d="M245.071 9.42969L146.862 134.055H343.135L245.071 9.42969Z" fill="url(#paint0_linear_593_95)"/>
</g>
<g filter="url(#filter2_d_593_95)">
<path d="M243.508 258L148 138H244L243.508 258Z" fill="url(#paint1_linear_593_95)"/>
</g>
<g filter="url(#filter3_d_593_95)">
<path d="M248.492 258L344 138H248L248.492 258Z" fill="url(#paint2_linear_593_95)"/>
</g>
<g filter="url(#filter4_d_593_95)">
<path d="M118.64 9.14258C85.8083 50.827 52.8321 92.5114 20 134.196H141.393C174.657 92.5114 207.777 50.827 241.041 9.14258H118.64Z" fill="url(#paint3_linear_593_95)"/>
</g>
<g filter="url(#filter5_d_593_95)">
<path d="M371.36 9C404.192 50.6844 437.168 92.5117 470 134.196H348.751C315.631 92.5117 282.367 50.6844 249.247 9H371.36Z" fill="url(#paint4_linear_593_95)"/>
</g>
<g filter="url(#filter6_d_593_95)">
<path d="M243.343 408.715C169.038 318.351 94.734 227.987 20.4297 137.48C60.7499 137.48 101.07 137.48 141.39 137.48C175.374 179.736 209.358 221.991 243.343 264.247V408.715Z" fill="url(#paint5_linear_593_95)"/>
</g>
<g filter="url(#filter7_d_593_95)">
<path d="M249 409.377C323.448 318.87 397.753 228.507 472.201 138C431.881 138 391.561 138 351.24 138C317.256 180.255 283.128 222.511 249.144 264.766V409.377H249Z" fill="url(#paint6_linear_593_95)"/>
</g>
</g>
<g clip-path="url(#clip0_593_95)">
<path d="M230.586 154.882C231.054 154.124 231.522 153.366 232.08 152.468C232.255 152.811 232.385 153.038 232.478 153.306C234.596 158.831 239.367 161.99 245.329 161.835C249.159 161.711 252.426 160.232 255.479 158.043C258.89 155.587 260.998 152.214 262.314 148.312C262.989 146.302 262.956 144.244 262.59 142.18C262.483 141.641 262.357 141.122 262.052 140.552C261.991 140.865 261.872 141.201 261.946 141.489C263.505 148.611 257.771 156.975 249.971 159.714C246.917 160.796 243.809 160.869 240.718 159.815C237.088 158.57 234.077 155.007 233.564 151.298C234.822 151.769 235.72 153.169 237.403 152.806C236.049 151.659 234.838 150.603 233.628 149.586C233.218 149.253 232.725 149.177 232.495 149.634C231.678 151.184 230.921 152.751 230.203 154.316C230.15 154.415 230.298 154.623 230.345 154.776C230.368 154.833 230.487 154.867 230.586 154.882Z" fill="white"/>
</g>
<g clip-path="url(#clip1_593_95)">
<path d="M255.773 123.116C255.4 123.925 255.028 124.733 254.582 125.692C254.367 125.373 254.211 125.162 254.086 124.907C251.318 119.669 246.204 117.098 240.308 117.961C236.522 118.538 233.459 120.395 230.694 122.933C227.606 125.778 225.921 129.379 225.086 133.412C224.659 135.489 224.94 137.53 225.551 139.536C225.723 140.059 225.911 140.56 226.282 141.09C226.305 140.772 226.382 140.424 226.274 140.147C223.868 133.256 228.549 124.266 235.957 120.618C238.857 119.181 241.932 118.739 245.126 119.419C248.878 120.225 252.295 123.407 253.251 127.031C251.946 126.712 250.886 125.428 249.26 125.988C250.741 126.967 252.071 127.872 253.394 128.739C253.84 129.021 254.339 129.038 254.512 128.557C255.136 126.92 255.698 125.274 256.222 123.633C256.263 123.528 256.091 123.34 256.025 123.193C255.996 123.139 255.873 123.119 255.773 123.116Z" fill="white"/>
</g>
<path d="M358.119 71.956C358.119 69.892 358.671 68.296 359.775 67.168C360.903 66.016 362.487 65.44 364.527 65.44C366.567 65.44 368.127 66.004 369.207 67.132C370.287 68.236 370.827 69.844 370.827 71.956V72.46C370.827 74.572 370.491 76.348 369.819 77.788C369.171 79.228 368.199 80.332 366.903 81.1L366.147 81.496C365.451 81.928 364.863 82.312 364.383 82.648C363.927 82.984 363.555 83.32 363.267 83.656C362.979 83.992 362.763 84.352 362.619 84.736C362.499 85.12 362.439 85.576 362.439 86.104V86.896H370.683V91H358.119V86.86C358.119 85.756 358.203 84.82 358.371 84.052C358.539 83.26 358.791 82.576 359.127 82C359.463 81.424 359.883 80.908 360.387 80.452C360.915 79.996 361.539 79.552 362.259 79.12L362.871 78.796C363.567 78.388 364.143 78.028 364.599 77.716C365.055 77.38 365.427 77.044 365.715 76.708C366.003 76.348 366.207 75.976 366.327 75.592C366.447 75.184 366.507 74.692 366.507 74.116V71.668C366.507 70.9 366.327 70.3 365.967 69.868C365.607 69.436 365.115 69.22 364.491 69.22C363.843 69.22 363.339 69.436 362.979 69.868C362.619 70.3 362.439 70.9 362.439 71.668V75.988H358.119V71.956Z" fill="url(#paint7_linear_593_95)"/>
<path d="M116.217 91V69.796L116.073 69.544H114.057V65.8H120.537V91H116.217Z" fill="url(#paint8_linear_593_95)"/>
<path d="M330.616 245.668C330.616 244.876 330.424 244.264 330.04 243.832C329.68 243.4 329.164 243.184 328.492 243.184C327.82 243.184 327.304 243.4 326.944 243.832C326.584 244.264 326.404 244.876 326.404 245.668V248.44H322.084V245.956C322.084 243.892 322.648 242.296 323.776 241.168C324.928 240.016 326.524 239.44 328.564 239.44C330.604 239.44 332.176 240.004 333.28 241.132C334.384 242.236 334.936 243.844 334.936 245.956V246.424C334.936 248.248 334.576 249.628 333.856 250.564C333.16 251.5 332.332 252.052 331.372 252.22V252.508C332.332 252.628 333.16 253.168 333.856 254.128C334.576 255.088 334.936 256.504 334.936 258.376V258.844C334.936 260.956 334.384 262.576 333.28 263.704C332.176 264.808 330.604 265.36 328.564 265.36C326.524 265.36 324.928 264.796 323.776 263.668C322.648 262.516 322.084 260.908 322.084 258.844V256.36H326.404V259.132C326.404 259.924 326.584 260.536 326.944 260.968C327.304 261.4 327.82 261.616 328.492 261.616C329.164 261.616 329.68 261.4 330.04 260.968C330.424 260.536 330.616 259.924 330.616 259.132V257.656C330.616 256.984 330.568 256.42 330.472 255.964C330.376 255.508 330.196 255.136 329.932 254.848C329.692 254.56 329.356 254.356 328.924 254.236C328.516 254.116 327.988 254.056 327.34 254.056H326.548V250.744H327.34C328.612 250.744 329.476 250.468 329.932 249.916C330.388 249.364 330.616 248.44 330.616 247.144V245.668Z" fill="url(#paint9_linear_593_95)"/>
<path d="M173.605 239.8V265H169.285V257.692H161.437V239.8H165.757V253.948H169.285V239.8H173.605Z" fill="url(#paint10_linear_593_95)"/>
<path d="M207.262 172.8H219.142V176.544H211.582V181.764H211.69C212.266 181.212 212.89 180.792 213.562 180.504C214.258 180.216 214.93 180.072 215.578 180.072C216.85 180.072 217.882 180.528 218.674 181.44C219.466 182.328 219.862 183.564 219.862 185.148V191.808C219.862 193.92 219.322 195.54 218.242 196.668C217.186 197.796 215.65 198.36 213.634 198.36C211.57 198.36 209.962 197.796 208.81 196.668C207.682 195.516 207.118 193.896 207.118 191.808V188.352H211.438V192.132C211.438 192.9 211.618 193.5 211.978 193.932C212.362 194.364 212.89 194.58 213.562 194.58C214.882 194.58 215.542 193.764 215.542 192.132V185.472C215.542 184.704 215.35 184.14 214.966 183.78C214.606 183.396 214.186 183.204 213.706 183.204C213.298 183.204 212.89 183.336 212.482 183.6C212.098 183.864 211.798 184.272 211.582 184.824V186.732H207.262V172.8Z" fill="url(#paint11_linear_593_95)"/>
<path d="M277.544 181.476V178.668C277.544 177.732 277.328 177.084 276.896 176.724C276.488 176.364 276.008 176.184 275.456 176.184C274.928 176.184 274.448 176.376 274.016 176.76C273.608 177.12 273.404 177.768 273.404 178.704V184.176H273.728C274.112 183.504 274.628 183.036 275.276 182.772C275.948 182.508 276.608 182.376 277.256 182.376C277.856 182.376 278.432 182.484 278.984 182.7C279.56 182.892 280.064 183.204 280.496 183.636C280.928 184.068 281.276 184.632 281.54 185.328C281.804 186 281.936 186.804 281.936 187.74V191.808C281.936 192.912 281.78 193.884 281.468 194.724C281.156 195.54 280.712 196.224 280.136 196.776C279.56 197.304 278.864 197.7 278.048 197.964C277.256 198.228 276.38 198.36 275.42 198.36C273.548 198.36 272.024 197.832 270.848 196.776C269.672 195.72 269.084 194.064 269.084 191.808V178.956C269.084 176.724 269.66 175.08 270.812 174.024C271.988 172.968 273.524 172.44 275.42 172.44C276.356 172.44 277.22 172.572 278.012 172.836C278.804 173.1 279.488 173.508 280.064 174.06C280.64 174.588 281.084 175.26 281.396 176.076C281.708 176.892 281.864 177.852 281.864 178.956V181.476H277.544ZM273.404 192.132C273.404 193.044 273.608 193.692 274.016 194.076C274.448 194.436 274.94 194.616 275.492 194.616C276.044 194.616 276.536 194.436 276.968 194.076C277.4 193.692 277.616 193.044 277.616 192.132V188.856C277.616 187.944 277.412 187.308 277.004 186.948C276.596 186.588 276.116 186.408 275.564 186.408C275.012 186.408 274.508 186.588 274.052 186.948C273.62 187.308 273.404 187.944 273.404 188.856V192.132Z" fill="url(#paint12_linear_593_95)"/>
<path d="M240.824 72.8H252.164V76.544L247.088 98H242.624L247.7 76.76L247.484 76.544H240.824V72.8Z" fill="url(#paint13_linear_593_95)"/>
<defs>
<filter id="filter0_d_593_95" x="0.9" y="4.9" width="490.401" height="438.577" filterUnits="userSpaceOnUse" color-interpolation-filters="sRGB">
<feFlood flood-opacity="0" result="BackgroundImageFix"/>
<feColorMatrix in="SourceAlpha" type="matrix" values="0 0 0 0 0 0 0 0 0 0 0 0 0 0 0 0 0 0 127 0" result="hardAlpha"/>
<feOffset dy="15"/>
<feGaussianBlur stdDeviation="9.55"/>
<feComposite in2="hardAlpha" operator="out"/>
<feColorMatrix type="matrix" values="0 0 0 0 0 0 0 0 0 0 0 0 0 0 0 0 0 0 0.25 0"/>
<feBlend mode="normal" in2="BackgroundImageFix" result="effect1_dropShadow_593_95"/>
<feBlend mode="normal" in="SourceGraphic" in2="effect1_dropShadow_593_95" result="shape"/>
</filter>
<filter id="filter1_d_593_95" x="144.962" y="1.02969" width="216.272" height="144.625" filterUnits="userSpaceOnUse" color-interpolation-filters="sRGB">
<feFlood flood-opacity="0" result="BackgroundImageFix"/>
<feColorMatrix in="SourceAlpha" type="matrix" values="0 0 0 0 0 0 0 0 0 0 0 0 0 0 0 0 0 0 127 0" result="hardAlpha"/>
<feOffset dx="8.1" dy="1.6"/>
<feGaussianBlur stdDeviation="5"/>
<feColorMatrix type="matrix" values="0 0 0 0 0 0 0 0 0 0 0 0 0 0 0 0 0 0 0.8 0"/>
<feBlend mode="normal" in2="BackgroundImageFix" result="effect1_dropShadow_593_95"/>
<feBlend mode="normal" in="SourceGraphic" in2="effect1_dropShadow_593_95" result="shape"/>
</filter>
<filter id="filter2_d_593_95" x="146.1" y="129.6" width="116" height="140" filterUnits="userSpaceOnUse" color-interpolation-filters="sRGB">
<feFlood flood-opacity="0" result="BackgroundImageFix"/>
<feColorMatrix in="SourceAlpha" type="matrix" values="0 0 0 0 0 0 0 0 0 0 0 0 0 0 0 0 0 0 127 0" result="hardAlpha"/>
<feOffset dx="8.1" dy="1.6"/>
<feGaussianBlur stdDeviation="5"/>
<feColorMatrix type="matrix" values="0 0 0 0 0 0 0 0 0 0 0 0 0 0 0 0 0 0 0.8 0"/>
<feBlend mode="normal" in2="BackgroundImageFix" result="effect1_dropShadow_593_95"/>
<feBlend mode="normal" in="SourceGraphic" in2="effect1_dropShadow_593_95" result="shape"/>
</filter>
<filter id="filter3_d_593_95" x="246.1" y="129.6" width="116" height="140" filterUnits="userSpaceOnUse" color-interpolation-filters="sRGB">
<feFlood flood-opacity="0" result="BackgroundImageFix"/>
<feColorMatrix in="SourceAlpha" type="matrix" values="0 0 0 0 0 0 0 0 0 0 0 0 0 0 0 0 0 0 127 0" result="hardAlpha"/>
<feOffset dx="8.1" dy="1.6"/>
<feGaussianBlur stdDeviation="5"/>
<feColorMatrix type="matrix" values="0 0 0 0 0 0 0 0 0 0 0 0 0 0 0 0 0 0 0.8 0"/>
<feBlend mode="normal" in2="BackgroundImageFix" result="effect1_dropShadow_593_95"/>
<feBlend mode="normal" in="SourceGraphic" in2="effect1_dropShadow_593_95" result="shape"/>
</filter>
<filter id="filter4_d_593_95" x="18.1" y="0.742578" width="241.041" height="145.053" filterUnits="userSpaceOnUse" color-interpolation-filters="sRGB">
<feFlood flood-opacity="0" result="BackgroundImageFix"/>
<feColorMatrix in="SourceAlpha" type="matrix" values="0 0 0 0 0 0 0 0 0 0 0 0 0 0 0 0 0 0 127 0" result="hardAlpha"/>
<feOffset dx="8.1" dy="1.6"/>
<feGaussianBlur stdDeviation="5"/>
<feColorMatrix type="matrix" values="0 0 0 0 0 0 0 0 0 0 0 0 0 0 0 0 0 0 0.8 0"/>
<feBlend mode="normal" in2="BackgroundImageFix" result="effect1_dropShadow_593_95"/>
<feBlend mode="normal" in="SourceGraphic" in2="effect1_dropShadow_593_95" result="shape"/>
</filter>
<filter id="filter5_d_593_95" x="247.347" y="0.6" width="240.753" height="145.195" filterUnits="userSpaceOnUse" color-interpolation-filters="sRGB">
<feFlood flood-opacity="0" result="BackgroundImageFix"/>
<feColorMatrix in="SourceAlpha" type="matrix" values="0 0 0 0 0 0 0 0 0 0 0 0 0 0 0 0 0 0 127 0" result="hardAlpha"/>
<feOffset dx="8.1" dy="1.6"/>
<feGaussianBlur stdDeviation="5"/>
<feColorMatrix type="matrix" values="0 0 0 0 0 0 0 0 0 0 0 0 0 0 0 0 0 0 0.8 0"/>
<feBlend mode="normal" in2="BackgroundImageFix" result="effect1_dropShadow_593_95"/>
<feBlend mode="normal" in="SourceGraphic" in2="effect1_dropShadow_593_95" result="shape"/>
</filter>
<filter id="filter6_d_593_95" x="18.5297" y="129.08" width="242.913" height="291.234" filterUnits="userSpaceOnUse" color-interpolation-filters="sRGB">
<feFlood flood-opacity="0" result="BackgroundImageFix"/>
<feColorMatrix in="SourceAlpha" type="matrix" values="0 0 0 0 0 0 0 0 0 0 0 0 0 0 0 0 0 0 127 0" result="hardAlpha"/>
<feOffset dx="8.1" dy="1.6"/>
<feGaussianBlur stdDeviation="5"/>
<feColorMatrix type="matrix" values="0 0 0 0 0 0 0 0 0 0 0 0 0 0 0 0 0 0 0.8 0"/>
<feBlend mode="normal" in2="BackgroundImageFix" result="effect1_dropShadow_593_95"/>
<feBlend mode="normal" in="SourceGraphic" in2="effect1_dropShadow_593_95" result="shape"/>
</filter>
<filter id="filter7_d_593_95" x="247.1" y="129.6" width="243.201" height="291.377" filterUnits="userSpaceOnUse" color-interpolation-filters="sRGB">
<feFlood flood-opacity="0" result="BackgroundImageFix"/>
<feColorMatrix in="SourceAlpha" type="matrix" values="0 0 0 0 0 0 0 0 0 0 0 0 0 0 0 0 0 0 127 0" result="hardAlpha"/>
<feOffset dx="8.1" dy="1.6"/>
<feGaussianBlur stdDeviation="5"/>
<feColorMatrix type="matrix" values="0 0 0 0 0 0 0 0 0 0 0 0 0 0 0 0 0 0 0.8 0"/>
<feBlend mode="normal" in2="BackgroundImageFix" result="effect1_dropShadow_593_95"/>
<feBlend mode="normal" in="SourceGraphic" in2="effect1_dropShadow_593_95" result="shape"/>
</filter>
<linearGradient id="paint0_linear_593_95" x1="245.191" y1="57.6244" x2="245.001" y2="134.055" gradientUnits="userSpaceOnUse">
<stop stop-color="#223283"/>
<stop offset="0.9999" stop-color="#697FAA"/>
<stop offset="1" stop-color="#666767"/>
</linearGradient>
<linearGradient id="paint1_linear_593_95" x1="244" y1="138" x2="188.5" y2="211" gradientUnits="userSpaceOnUse">
<stop stop-color="#3566C8"/>
<stop offset="1" stop-color="#29353D"/>
</linearGradient>
<linearGradient id="paint2_linear_593_95" x1="248" y1="138" x2="303.5" y2="211" gradientUnits="userSpaceOnUse">
<stop stop-color="#3566C8"/>
<stop offset="1" stop-color="#29353D"/>
</linearGradient>
<linearGradient id="paint3_linear_593_95" x1="130.52" y1="9.14258" x2="130.52" y2="134.196" gradientUnits="userSpaceOnUse">
<stop stop-color="#030B5F"/>
<stop offset="1" stop-color="#0C8CCC"/>
</linearGradient>
<linearGradient id="paint4_linear_593_95" x1="359.624" y1="9" x2="359.624" y2="134.196" gradientUnits="userSpaceOnUse">
<stop stop-color="#030B5F"/>
<stop offset="1" stop-color="#0C8CCC"/>
</linearGradient>
<linearGradient id="paint5_linear_593_95" x1="131.886" y1="137.48" x2="131.886" y2="408.715" gradientUnits="userSpaceOnUse">
<stop stop-color="#00347D"/>
<stop offset="1" stop-color="#6EAAD7"/>
</linearGradient>
<linearGradient id="paint6_linear_593_95" x1="430.5" y1="160.5" x2="259.5" y2="379.5" gradientUnits="userSpaceOnUse">
<stop stop-color="#173C67"/>
<stop offset="1" stop-color="#3380BE"/>
</linearGradient>
<linearGradient id="paint7_linear_593_95" x1="364.5" y1="65" x2="364.5" y2="95" gradientUnits="userSpaceOnUse">
<stop stop-color="white"/>
</linearGradient>
<linearGradient id="paint8_linear_593_95" x1="117.5" y1="65" x2="117.5" y2="95" gradientUnits="userSpaceOnUse">
<stop stop-color="white"/>
</linearGradient>
<linearGradient id="paint9_linear_593_95" x1="328.5" y1="239" x2="328.5" y2="269" gradientUnits="userSpaceOnUse">
<stop stop-color="white"/>
</linearGradient>
<linearGradient id="paint10_linear_593_95" x1="167.5" y1="239" x2="167.5" y2="269" gradientUnits="userSpaceOnUse">
<stop stop-color="white"/>
</linearGradient>
<linearGradient id="paint11_linear_593_95" x1="213.5" y1="172" x2="213.5" y2="202" gradientUnits="userSpaceOnUse">
<stop stop-color="white"/>
</linearGradient>
<linearGradient id="paint12_linear_593_95" x1="275.5" y1="172" x2="275.5" y2="202" gradientUnits="userSpaceOnUse">
<stop stop-color="white"/>
</linearGradient>
<linearGradient id="paint13_linear_593_95" x1="246.5" y1="72" x2="246.5" y2="102" gradientUnits="userSpaceOnUse">
<stop stop-color="white"/>
</linearGradient>
<clipPath id="clip0_593_95">
<rect width="31.8057" height="23.0282" fill="white" transform="matrix(0.674874 -0.737933 -0.742625 -0.669707 246.022 168.924)"/>
</clipPath>
<clipPath id="clip1_593_95">
<rect width="31.7819" height="23.0452" fill="white" transform="matrix(-0.581043 0.813873 0.816959 0.576697 238.765 111)"/>
</clipPath>
</defs>
</svg>
