<svg width="492" height="444" viewBox="0 0 492 444" fill="none" xmlns="http://www.w3.org/2000/svg">
<g filter="url(#filter0_d_389_61)">
<g filter="url(#filter1_d_389_61)">
<path d="M245.071 9.42969L146.862 134.055H343.135L245.071 9.42969Z" fill="url(#paint0_linear_389_61)"/>
</g>
<g filter="url(#filter2_d_389_61)">
<path d="M243.508 258L148 138H244L243.508 258Z" fill="url(#paint1_linear_389_61)"/>
</g>
<g filter="url(#filter3_d_389_61)">
<path d="M248.492 258L344 138H248L248.492 258Z" fill="url(#paint2_linear_389_61)"/>
</g>
<g filter="url(#filter4_d_389_61)">
<path d="M118.64 9.14258C85.8083 50.827 52.8321 92.5114 20 134.196H141.393C174.657 92.5114 207.777 50.827 241.041 9.14258H118.64Z" fill="url(#paint3_linear_389_61)"/>
</g>
<g filter="url(#filter5_d_389_61)">
<path d="M371.36 9C404.192 50.6844 437.168 92.5117 470 134.196H348.751C315.631 92.5117 282.367 50.6844 249.247 9H371.36Z" fill="url(#paint4_linear_389_61)"/>
</g>
<g filter="url(#filter6_d_389_61)">
<path d="M243.344 408.715C169.039 318.351 94.735 227.987 20.4307 137.48C60.7508 137.48 101.071 137.48 141.391 137.48C175.375 179.736 209.359 221.991 243.344 264.247V408.715Z" fill="url(#paint5_linear_389_61)"/>
</g>
<g filter="url(#filter7_d_389_61)">
<path d="M249 409.377C323.448 318.87 397.753 228.507 472.201 138C431.881 138 391.561 138 351.24 138C317.256 180.255 283.128 222.511 249.144 264.766V409.377H249Z" fill="url(#paint6_linear_389_61)"/>
</g>
</g>
<g clip-path="url(#clip0_389_61)">
<path d="M230.586 154.882C231.054 154.124 231.522 153.366 232.08 152.468C232.255 152.811 232.385 153.038 232.478 153.306C234.596 158.831 239.367 161.99 245.329 161.835C249.159 161.711 252.426 160.232 255.479 158.043C258.89 155.587 260.998 152.214 262.314 148.312C262.989 146.302 262.956 144.244 262.59 142.18C262.483 141.641 262.357 141.122 262.052 140.552C261.991 140.865 261.872 141.201 261.946 141.489C263.505 148.611 257.771 156.975 249.971 159.714C246.917 160.796 243.809 160.869 240.718 159.815C237.088 158.57 234.077 155.007 233.564 151.298C234.822 151.769 235.72 153.169 237.403 152.806C236.049 151.659 234.838 150.603 233.628 149.586C233.218 149.253 232.725 149.177 232.495 149.634C231.678 151.184 230.921 152.751 230.203 154.316C230.15 154.415 230.298 154.623 230.345 154.776C230.368 154.833 230.487 154.867 230.586 154.882Z" fill="white"/>
</g>
<g clip-path="url(#clip1_389_61)">
<path d="M255.773 123.116C255.4 123.925 255.028 124.733 254.582 125.692C254.367 125.373 254.211 125.162 254.086 124.907C251.318 119.669 246.204 117.098 240.308 117.961C236.522 118.538 233.459 120.395 230.694 122.933C227.606 125.778 225.921 129.379 225.086 133.412C224.659 135.489 224.94 137.53 225.551 139.536C225.723 140.059 225.911 140.56 226.282 141.09C226.305 140.772 226.382 140.424 226.274 140.147C223.868 133.256 228.549 124.266 235.957 120.618C238.857 119.181 241.932 118.739 245.126 119.419C248.878 120.225 252.295 123.407 253.251 127.031C251.946 126.712 250.886 125.428 249.26 125.988C250.741 126.967 252.071 127.872 253.394 128.739C253.84 129.021 254.339 129.038 254.512 128.557C255.136 126.92 255.698 125.274 256.222 123.633C256.263 123.528 256.091 123.34 256.025 123.193C255.996 123.139 255.873 123.119 255.773 123.116Z" fill="white"/>
</g>
<path d="M130.217 91V69.796L130.073 69.544H128.093V65.8H134.537V91H130.217Z" fill="url(#paint7_linear_389_61)"/>
<path d="M358.119 75.952V71.956C358.119 69.892 358.683 68.296 359.811 67.168C360.939 66.016 362.523 65.44 364.563 65.44C366.579 65.44 368.127 66.004 369.207 67.132C370.311 68.26 370.863 69.868 370.863 71.956V72.424C370.863 73.48 370.779 74.452 370.611 75.34C370.443 76.228 370.179 77.032 369.819 77.752C369.483 78.472 369.075 79.108 368.595 79.66C368.115 80.212 367.551 80.692 366.903 81.1L366.183 81.496C365.487 81.928 364.899 82.312 364.419 82.648C363.939 82.984 363.555 83.32 363.267 83.656C362.979 83.992 362.763 84.352 362.619 84.736C362.499 85.12 362.439 85.576 362.439 86.104V86.896H370.719V91H358.119V86.824C358.119 85.744 358.203 84.82 358.371 84.052C358.539 83.26 358.791 82.576 359.127 82C359.463 81.424 359.883 80.92 360.387 80.488C360.915 80.032 361.539 79.576 362.259 79.12L362.907 78.76C363.579 78.352 364.143 77.992 364.599 77.68C365.055 77.344 365.427 77.008 365.715 76.672C366.003 76.336 366.207 75.976 366.327 75.592C366.471 75.184 366.543 74.692 366.543 74.116V71.668C366.543 70.876 366.363 70.264 366.003 69.832C365.643 69.4 365.139 69.184 364.491 69.184C363.843 69.184 363.339 69.4 362.979 69.832C362.619 70.264 362.439 70.876 362.439 71.668V75.952H358.119Z" fill="url(#paint8_linear_389_61)"/>
<path d="M330.616 245.668C330.616 244.876 330.424 244.264 330.04 243.832C329.68 243.4 329.164 243.184 328.492 243.184C327.82 243.184 327.304 243.4 326.944 243.832C326.584 244.264 326.404 244.876 326.404 245.668V248.44H322.084V245.956C322.084 243.892 322.648 242.296 323.776 241.168C324.904 240.016 326.5 239.44 328.564 239.44C330.604 239.44 332.176 240.004 333.28 241.132C334.384 242.26 334.936 243.868 334.936 245.956V246.424C334.936 247.336 334.84 248.14 334.648 248.836C334.456 249.508 334.192 250.084 333.856 250.564C333.544 251.044 333.172 251.416 332.74 251.68C332.308 251.944 331.852 252.124 331.372 252.22V252.508C331.876 252.556 332.332 252.724 332.74 253.012C333.172 253.276 333.544 253.648 333.856 254.128C334.192 254.608 334.456 255.196 334.648 255.892C334.84 256.588 334.936 257.416 334.936 258.376V258.844C334.936 260.932 334.384 262.54 333.28 263.668C332.176 264.796 330.604 265.36 328.564 265.36C326.5 265.36 324.904 264.796 323.776 263.668C322.648 262.516 322.084 260.908 322.084 258.844V256.36H326.404V259.132C326.404 259.924 326.584 260.536 326.944 260.968C327.304 261.4 327.82 261.616 328.492 261.616C329.164 261.616 329.68 261.4 330.04 260.968C330.424 260.536 330.616 259.924 330.616 259.132V257.656C330.616 256.984 330.568 256.42 330.472 255.964C330.376 255.484 330.196 255.112 329.932 254.848C329.692 254.56 329.356 254.356 328.924 254.236C328.516 254.092 327.988 254.02 327.34 254.02H326.548V250.744H327.34C327.964 250.744 328.48 250.684 328.888 250.564C329.32 250.42 329.656 250.204 329.896 249.916C330.16 249.628 330.34 249.256 330.436 248.8C330.556 248.344 330.616 247.792 330.616 247.144V245.668Z" fill="url(#paint9_linear_389_61)"/>
<path d="M168.285 239.8H172.605V265H168.285V257.692H160.437V239.8H164.757V253.948H168.285V239.8Z" fill="url(#paint10_linear_389_61)"/>
<path d="M207.262 186.768V172.8H219.142V176.544H211.582V181.764H211.69C212.266 181.212 212.89 180.792 213.562 180.504C214.234 180.216 214.906 180.072 215.578 180.072C216.202 180.072 216.778 180.192 217.306 180.432C217.834 180.672 218.278 181.02 218.638 181.476C219.022 181.908 219.322 182.436 219.538 183.06C219.754 183.684 219.862 184.38 219.862 185.148V191.808C219.862 193.944 219.322 195.576 218.242 196.704C217.186 197.808 215.65 198.36 213.634 198.36C211.57 198.36 209.974 197.796 208.846 196.668C207.718 195.516 207.154 193.896 207.154 191.808V188.352H211.474V192.132C211.474 192.924 211.654 193.536 212.014 193.968C212.374 194.4 212.89 194.616 213.562 194.616C214.21 194.616 214.702 194.412 215.038 194.004C215.374 193.572 215.542 192.948 215.542 192.132V185.472C215.542 185.088 215.482 184.752 215.362 184.464C215.266 184.176 215.134 183.948 214.966 183.78C214.798 183.588 214.606 183.444 214.39 183.348C214.174 183.252 213.946 183.204 213.706 183.204C213.298 183.204 212.89 183.336 212.482 183.6C212.098 183.864 211.798 184.272 211.582 184.824V186.768H207.262Z" fill="url(#paint11_linear_389_61)"/>
<path d="M281.864 181.476H277.544V178.668C277.544 178.188 277.484 177.792 277.364 177.48C277.244 177.168 277.088 176.916 276.896 176.724C276.704 176.532 276.476 176.4 276.212 176.328C275.972 176.232 275.72 176.184 275.456 176.184C275.216 176.184 274.964 176.232 274.7 176.328C274.436 176.4 274.208 176.544 274.016 176.76C273.848 176.952 273.704 177.204 273.584 177.516C273.464 177.828 273.404 178.224 273.404 178.704V184.176H273.728C273.92 183.84 274.148 183.564 274.412 183.348C274.676 183.108 274.964 182.928 275.276 182.808C275.588 182.664 275.912 182.556 276.248 182.484C276.584 182.412 276.92 182.376 277.256 182.376C277.856 182.376 278.432 182.484 278.984 182.7C279.56 182.892 280.064 183.204 280.496 183.636C280.928 184.068 281.276 184.632 281.54 185.328C281.804 186 281.936 186.804 281.936 187.74V191.808C281.936 192.936 281.768 193.908 281.432 194.724C281.12 195.54 280.676 196.224 280.1 196.776C279.524 197.304 278.84 197.7 278.048 197.964C277.256 198.228 276.38 198.36 275.42 198.36C274.484 198.36 273.62 198.228 272.828 197.964C272.06 197.7 271.4 197.304 270.848 196.776C270.296 196.224 269.864 195.54 269.552 194.724C269.24 193.908 269.084 192.936 269.084 191.808V178.956C269.084 177.852 269.228 176.892 269.516 176.076C269.828 175.236 270.26 174.552 270.812 174.024C271.388 173.496 272.06 173.1 272.828 172.836C273.596 172.572 274.46 172.44 275.42 172.44C276.356 172.44 277.22 172.572 278.012 172.836C278.804 173.1 279.488 173.508 280.064 174.06C280.64 174.588 281.084 175.26 281.396 176.076C281.708 176.892 281.864 177.852 281.864 178.956V181.476ZM273.404 188.856V192.132C273.404 192.588 273.464 192.972 273.584 193.284C273.704 193.596 273.86 193.848 274.052 194.04C274.244 194.232 274.46 194.376 274.7 194.472C274.964 194.568 275.228 194.616 275.492 194.616C275.78 194.616 276.044 194.568 276.284 194.472C276.548 194.376 276.776 194.232 276.968 194.04C277.16 193.848 277.316 193.596 277.436 193.284C277.556 192.972 277.616 192.588 277.616 192.132V188.856C277.616 188.376 277.556 187.98 277.436 187.668C277.34 187.356 277.196 187.116 277.004 186.948C276.812 186.756 276.584 186.624 276.32 186.552C276.08 186.456 275.828 186.408 275.564 186.408C275.276 186.408 275 186.456 274.736 186.552C274.496 186.624 274.268 186.756 274.052 186.948C273.86 187.116 273.704 187.356 273.584 187.668C273.464 187.98 273.404 188.376 273.404 188.856Z" fill="url(#paint12_linear_389_61)"/>
<path d="M238.824 81.544V77.8H250.164V81.544L245.088 103H240.624L245.7 81.76L245.484 81.544H238.824Z" fill="url(#paint13_linear_389_61)"/>
<defs>
<filter id="filter0_d_389_61" x="0.9" y="4.9" width="490.401" height="438.577" filterUnits="userSpaceOnUse" color-interpolation-filters="sRGB">
<feFlood flood-opacity="0" result="BackgroundImageFix"/>
<feColorMatrix in="SourceAlpha" type="matrix" values="0 0 0 0 0 0 0 0 0 0 0 0 0 0 0 0 0 0 127 0" result="hardAlpha"/>
<feOffset dy="15"/>
<feGaussianBlur stdDeviation="9.55"/>
<feComposite in2="hardAlpha" operator="out"/>
<feColorMatrix type="matrix" values="0 0 0 0 0 0 0 0 0 0 0 0 0 0 0 0 0 0 0.25 0"/>
<feBlend mode="normal" in2="BackgroundImageFix" result="effect1_dropShadow_389_61"/>
<feBlend mode="normal" in="SourceGraphic" in2="effect1_dropShadow_389_61" result="shape"/>
</filter>
<filter id="filter1_d_389_61" x="144.962" y="1.02969" width="216.272" height="144.625" filterUnits="userSpaceOnUse" color-interpolation-filters="sRGB">
<feFlood flood-opacity="0" result="BackgroundImageFix"/>
<feColorMatrix in="SourceAlpha" type="matrix" values="0 0 0 0 0 0 0 0 0 0 0 0 0 0 0 0 0 0 127 0" result="hardAlpha"/>
<feOffset dx="8.1" dy="1.6"/>
<feGaussianBlur stdDeviation="5"/>
<feColorMatrix type="matrix" values="0 0 0 0 0 0 0 0 0 0 0 0 0 0 0 0 0 0 0.8 0"/>
<feBlend mode="normal" in2="BackgroundImageFix" result="effect1_dropShadow_389_61"/>
<feBlend mode="normal" in="SourceGraphic" in2="effect1_dropShadow_389_61" result="shape"/>
</filter>
<filter id="filter2_d_389_61" x="146.1" y="129.6" width="116" height="140" filterUnits="userSpaceOnUse" color-interpolation-filters="sRGB">
<feFlood flood-opacity="0" result="BackgroundImageFix"/>
<feColorMatrix in="SourceAlpha" type="matrix" values="0 0 0 0 0 0 0 0 0 0 0 0 0 0 0 0 0 0 127 0" result="hardAlpha"/>
<feOffset dx="8.1" dy="1.6"/>
<feGaussianBlur stdDeviation="5"/>
<feColorMatrix type="matrix" values="0 0 0 0 0 0 0 0 0 0 0 0 0 0 0 0 0 0 0.8 0"/>
<feBlend mode="normal" in2="BackgroundImageFix" result="effect1_dropShadow_389_61"/>
<feBlend mode="normal" in="SourceGraphic" in2="effect1_dropShadow_389_61" result="shape"/>
</filter>
<filter id="filter3_d_389_61" x="246.1" y="129.6" width="116" height="140" filterUnits="userSpaceOnUse" color-interpolation-filters="sRGB">
<feFlood flood-opacity="0" result="BackgroundImageFix"/>
<feColorMatrix in="SourceAlpha" type="matrix" values="0 0 0 0 0 0 0 0 0 0 0 0 0 0 0 0 0 0 127 0" result="hardAlpha"/>
<feOffset dx="8.1" dy="1.6"/>
<feGaussianBlur stdDeviation="5"/>
<feColorMatrix type="matrix" values="0 0 0 0 0 0 0 0 0 0 0 0 0 0 0 0 0 0 0.8 0"/>
<feBlend mode="normal" in2="BackgroundImageFix" result="effect1_dropShadow_389_61"/>
<feBlend mode="normal" in="SourceGraphic" in2="effect1_dropShadow_389_61" result="shape"/>
</filter>
<filter id="filter4_d_389_61" x="18.1" y="0.742578" width="241.041" height="145.053" filterUnits="userSpaceOnUse" color-interpolation-filters="sRGB">
<feFlood flood-opacity="0" result="BackgroundImageFix"/>
<feColorMatrix in="SourceAlpha" type="matrix" values="0 0 0 0 0 0 0 0 0 0 0 0 0 0 0 0 0 0 127 0" result="hardAlpha"/>
<feOffset dx="8.1" dy="1.6"/>
<feGaussianBlur stdDeviation="5"/>
<feColorMatrix type="matrix" values="0 0 0 0 0 0 0 0 0 0 0 0 0 0 0 0 0 0 0.8 0"/>
<feBlend mode="normal" in2="BackgroundImageFix" result="effect1_dropShadow_389_61"/>
<feBlend mode="normal" in="SourceGraphic" in2="effect1_dropShadow_389_61" result="shape"/>
</filter>
<filter id="filter5_d_389_61" x="247.347" y="0.6" width="240.753" height="145.195" filterUnits="userSpaceOnUse" color-interpolation-filters="sRGB">
<feFlood flood-opacity="0" result="BackgroundImageFix"/>
<feColorMatrix in="SourceAlpha" type="matrix" values="0 0 0 0 0 0 0 0 0 0 0 0 0 0 0 0 0 0 127 0" result="hardAlpha"/>
<feOffset dx="8.1" dy="1.6"/>
<feGaussianBlur stdDeviation="5"/>
<feColorMatrix type="matrix" values="0 0 0 0 0 0 0 0 0 0 0 0 0 0 0 0 0 0 0.8 0"/>
<feBlend mode="normal" in2="BackgroundImageFix" result="effect1_dropShadow_389_61"/>
<feBlend mode="normal" in="SourceGraphic" in2="effect1_dropShadow_389_61" result="shape"/>
</filter>
<filter id="filter6_d_389_61" x="18.5307" y="129.08" width="242.913" height="291.234" filterUnits="userSpaceOnUse" color-interpolation-filters="sRGB">
<feFlood flood-opacity="0" result="BackgroundImageFix"/>
<feColorMatrix in="SourceAlpha" type="matrix" values="0 0 0 0 0 0 0 0 0 0 0 0 0 0 0 0 0 0 127 0" result="hardAlpha"/>
<feOffset dx="8.1" dy="1.6"/>
<feGaussianBlur stdDeviation="5"/>
<feColorMatrix type="matrix" values="0 0 0 0 0 0 0 0 0 0 0 0 0 0 0 0 0 0 0.8 0"/>
<feBlend mode="normal" in2="BackgroundImageFix" result="effect1_dropShadow_389_61"/>
<feBlend mode="normal" in="SourceGraphic" in2="effect1_dropShadow_389_61" result="shape"/>
</filter>
<filter id="filter7_d_389_61" x="247.1" y="129.6" width="243.201" height="291.377" filterUnits="userSpaceOnUse" color-interpolation-filters="sRGB">
<feFlood flood-opacity="0" result="BackgroundImageFix"/>
<feColorMatrix in="SourceAlpha" type="matrix" values="0 0 0 0 0 0 0 0 0 0 0 0 0 0 0 0 0 0 127 0" result="hardAlpha"/>
<feOffset dx="8.1" dy="1.6"/>
<feGaussianBlur stdDeviation="5"/>
<feColorMatrix type="matrix" values="0 0 0 0 0 0 0 0 0 0 0 0 0 0 0 0 0 0 0.8 0"/>
<feBlend mode="normal" in2="BackgroundImageFix" result="effect1_dropShadow_389_61"/>
<feBlend mode="normal" in="SourceGraphic" in2="effect1_dropShadow_389_61" result="shape"/>
</filter>
<linearGradient id="paint0_linear_389_61" x1="245.191" y1="57.6244" x2="245.001" y2="134.055" gradientUnits="userSpaceOnUse">
<stop stop-color="#223283"/>
<stop offset="0.9999" stop-color="#697FAA"/>
<stop offset="1" stop-color="#666767"/>
</linearGradient>
<linearGradient id="paint1_linear_389_61" x1="244" y1="138" x2="188.5" y2="211" gradientUnits="userSpaceOnUse">
<stop stop-color="#3566C8"/>
<stop offset="1" stop-color="#29353D"/>
</linearGradient>
<linearGradient id="paint2_linear_389_61" x1="248" y1="138" x2="303.5" y2="211" gradientUnits="userSpaceOnUse">
<stop stop-color="#3566C8"/>
<stop offset="1" stop-color="#29353D"/>
</linearGradient>
<linearGradient id="paint3_linear_389_61" x1="130.52" y1="9.14258" x2="130.52" y2="134.196" gradientUnits="userSpaceOnUse">
<stop stop-color="#030B5F"/>
<stop offset="1" stop-color="#0C8CCC"/>
</linearGradient>
<linearGradient id="paint4_linear_389_61" x1="359.624" y1="9" x2="359.624" y2="134.196" gradientUnits="userSpaceOnUse">
<stop stop-color="#030B5F"/>
<stop offset="1" stop-color="#0C8CCC"/>
</linearGradient>
<linearGradient id="paint5_linear_389_61" x1="131.887" y1="137.48" x2="131.887" y2="408.715" gradientUnits="userSpaceOnUse">
<stop stop-color="#00347D"/>
<stop offset="1" stop-color="#6EAAD7"/>
</linearGradient>
<linearGradient id="paint6_linear_389_61" x1="430.5" y1="160.5" x2="259.5" y2="379.5" gradientUnits="userSpaceOnUse">
<stop stop-color="#173C67"/>
<stop offset="1" stop-color="#3380BE"/>
</linearGradient>
<linearGradient id="paint7_linear_389_61" x1="131.5" y1="65" x2="131.5" y2="95" gradientUnits="userSpaceOnUse">
<stop stop-color="#0F0F0F"/>
<stop offset="1" stop-color="#6B6B6B"/>
</linearGradient>
<linearGradient id="paint8_linear_389_61" x1="364.5" y1="65" x2="364.5" y2="95" gradientUnits="userSpaceOnUse">
<stop stop-color="#0F0F0F"/>
<stop offset="1" stop-color="#6B6B6B"/>
</linearGradient>
<linearGradient id="paint9_linear_389_61" x1="328.5" y1="239" x2="328.5" y2="269" gradientUnits="userSpaceOnUse">
<stop stop-color="#0F0F0F"/>
<stop offset="1" stop-color="#6B6B6B"/>
</linearGradient>
<linearGradient id="paint10_linear_389_61" x1="166.5" y1="239" x2="166.5" y2="269" gradientUnits="userSpaceOnUse">
<stop stop-color="#0F0F0F"/>
<stop offset="1" stop-color="#6B6B6B"/>
</linearGradient>
<linearGradient id="paint11_linear_389_61" x1="213.5" y1="172" x2="213.5" y2="202" gradientUnits="userSpaceOnUse">
<stop stop-color="#0F0F0F"/>
<stop offset="1" stop-color="#6B6B6B"/>
</linearGradient>
<linearGradient id="paint12_linear_389_61" x1="275.5" y1="172" x2="275.5" y2="202" gradientUnits="userSpaceOnUse">
<stop stop-color="#0F0F0F"/>
<stop offset="1" stop-color="#6B6B6B"/>
</linearGradient>
<linearGradient id="paint13_linear_389_61" x1="244.5" y1="77" x2="244.5" y2="107" gradientUnits="userSpaceOnUse">
<stop stop-color="#0F0F0F"/>
<stop offset="1" stop-color="#6B6B6B"/>
</linearGradient>
<clipPath id="clip0_389_61">
<rect width="31.8057" height="23.0282" fill="white" transform="matrix(0.674874 -0.737933 -0.742625 -0.669707 246.022 168.924)"/>
</clipPath>
<clipPath id="clip1_389_61">
<rect width="31.7819" height="23.0452" fill="white" transform="matrix(-0.581043 0.813873 0.816959 0.576697 238.765 111)"/>
</clipPath>
</defs>
</svg>
