<svg width="80" height="80" fill="none" xmlns="http://www.w3.org/2000/svg"><g clip-path="url(#a)"><path d="M80 0H0v80h80V0z" fill="#fff"/><path d="M0 40v40h80V0H0v40zM41.49 9.23c1.91.073 4.187.477 6.219 1.11 6.245 1.943 11.597 6.16 15.444 12.151.21.331.386.64.386.685 0 .059-.304.08-.975.08h-.975l-.312-.478c-.86-1.295-2.54-3.326-3.645-4.393l-.474-.457-1.158.317c-2.073.552-4.356 1-6.632 1.302-.515.074-.934.155-.934.177 0 .03.094.383.21.78.264.95.67 2.54.67 2.657 0 .074-.21.096-.847.096h-.84l-.115-.427c-.054-.228-.17-.655-.237-.935-.217-.81-.548-1.906-.603-1.972-.027-.037-.474-.03-.989.014-.508.045-1.95.118-3.197.17-2.391.088-5.758.007-8.007-.199-.575-.052-1.07-.074-1.097-.044-.054.059-.542 1.715-.772 2.65l-.183.743h-.833c-.766 0-.84-.015-.84-.133 0-.162.386-1.722.677-2.73.115-.383.183-.721.149-.75-.027-.023-.366-.09-.759-.133-1.849-.229-4.531-.766-6.584-1.31l-1.267-.339-.359.331c-1.09 1.016-2.845 3.106-3.746 4.453l-.406.61h-.996c-.555 0-1.002-.021-1.002-.044 0-.095 1.084-1.729 1.693-2.568 2.601-3.54 5.785-6.322 9.551-8.346 2.873-1.546 5.677-2.45 8.976-2.914.833-.118 3.041-.243 3.556-.206.129.007.698.036 1.253.051zm-3.184 16.83c1.057.14 1.653.17 4.492.192l3.265.03V34.223h-5.819l-.02-.861-.02-.869-.407-.177c-1.165-.5-2.73-.772-4.471-.78-1.714 0-2.486.162-3.224.7a1.55 1.55 0 0 0-.237 2.31c.657.722 1.463.95 5.053 1.436 3.102.426 4.301.699 5.805 1.34.725.308 1.64.89 2.208 1.412.84.758 1.531 2.01 1.85 3.334.237.986.305 2.885.135 3.893-.291 1.723-.887 2.959-1.978 4.085-1.178 1.222-2.696 2.024-4.789 2.532-2.31.566-5.582.655-8.86.25-1.125-.133-1.775-.162-4.478-.184l-3.17-.03v-7.867h5.826v1.62l.264.146c.86.471 2.628.817 4.49.861 3.212.089 4.655-.53 4.661-2.001 0-.575-.149-.884-.596-1.222-.65-.5-1.565-.729-4.484-1.134-3.509-.493-4.898-.839-6.422-1.619-2.432-1.25-3.63-3.157-3.874-6.16-.136-1.59.101-3.076.677-4.371 1.294-2.908 4.254-4.578 8.84-4.99.921-.081 4.105.03 5.283.184zm25.64-.043c3.021.493 5.426 1.73 7.289 3.746 2.269 2.465 3.366 5.63 3.36 9.685 0 1.943-.197 3.4-.664 4.931-1.592 5.196-5.718 8.302-11.523 8.677-3.041.192-6.137-.463-8.352-1.774-1.497-.883-3.089-2.436-3.95-3.849-1.043-1.722-1.686-3.694-1.943-5.998-.102-.92-.082-3.245.033-4.21.556-4.563 2.805-8.022 6.422-9.884 1.51-.773 3.143-1.236 5.162-1.464.677-.074 3.42.014 4.166.14zM21.88 29.623v3.275H17.95v13.247H21.88v6.551l-7.804-.015-7.81-.022-.02-3.26-.014-3.254H10.161V32.898l-1.944-.015-1.951-.022-.02-3.26-.014-3.253H21.88v3.275zm-3.184 26.51c.86 1.324 2.743 3.598 3.807 4.6l.386.36 1.104-.295c2.12-.566 4.22-.986 6.388-1.273a35.3 35.3 0 0 0 1.24-.176c.013-.008-.075-.339-.19-.744-.278-.95-.677-2.524-.677-2.686 0-.118.08-.132.84-.132h.833l.183.714c.101.397.311 1.162.46 1.707l.285.979.38-.044c2.187-.243 7.89-.31 10.566-.118.84.059 1.721.11 1.958.11h.44l.23-.773c.13-.426.333-1.17.455-1.656l.223-.883.854-.022c.569-.014.853.008.853.06 0 .124-.59 2.42-.772 2.995l-.17.53.217.036c.122.022.596.096 1.064.155 1.985.272 4.45.78 6.32 1.295.969.272 1.084.287 1.22.191.324-.235 1.788-1.817 2.492-2.678a36.643 36.643 0 0 0 1.32-1.76l.59-.838h.969c.535 0 .975.029.975.058 0 .096-.894 1.495-1.415 2.223-4.674 6.543-11.577 10.723-19.211 11.643-1.26.147-4.904.125-6.097-.037-6.198-.868-11.42-3.518-15.952-8.095-1.558-1.575-3.51-4.122-4.363-5.704-.04-.066.17-.088.962-.088h1.01l.223.346z" fill="#1E6AFF"/><path d="M39.078 11.062c-1.565.581-3.055 2.421-4.423 5.46-.312.685-.583 1.31-.603 1.377-.034.103.02.132.312.17 1.68.198 6.083.301 8.48.19 2.88-.132 3.15-.154 3.15-.294 0-.184-1.016-2.4-1.45-3.15-.88-1.545-1.754-2.62-2.648-3.26-.941-.662-1.897-.832-2.818-.493zM35.291 11.349c-3.63.832-6.597 2.164-9.7 4.372-.759.537-1.003.765-.813.765.027 0 .46.103.962.22 1.64.406 5.06 1.017 6.252 1.12l.258.022.284-.736c.827-2.098 2.114-4.387 3.157-5.579.23-.265.23-.272.075-.265a3.205 3.205 0 0 0-.475.081zM44.404 11.569c.467.588 1.24 1.744 1.632 2.428.481.847 1.206 2.392 1.518 3.253l.237.64.44-.044c2.134-.228 7.18-1.192 7.18-1.376 0-.037-.433-.375-.962-.75-2.885-2.069-6.082-3.54-9.26-4.27-1.09-.25-1.083-.25-.785.119zM60.43 32.095c-2.256.375-3.57 2.12-3.977 5.27-.155 1.228-.101 3.87.102 4.9.644 3.224 2.303 4.733 5.047 4.593 1.429-.073 2.208-.412 3.055-1.34 1.178-1.272 1.652-3.031 1.66-6.07 0-2.496-.333-4.078-1.132-5.388a4.151 4.151 0 0 0-2.459-1.862c-.562-.14-1.734-.199-2.296-.103zM37.12 60.762c-1.828.11-3.082.191-3.102.213-.054.059.8 1.965 1.246 2.804.962 1.796 1.91 3.003 2.886 3.695.637.449 1.023.596 1.653.655.616.051 1.064-.06 1.755-.442.779-.434 1.903-1.663 2.668-2.922.508-.831 1.768-3.444 1.768-3.665 0-.117-.142-.14-1.456-.235-1.11-.081-6.523-.155-7.417-.103zM31.532 61.211c-.108.015-.759.11-1.443.213-1.625.243-2.899.479-4.328.81-.908.213-1.152.294-1.098.368.122.162 1.904 1.406 2.798 1.943 2.317 1.406 4.837 2.443 7.357 3.017.521.126.982.221 1.022.221.041 0-.088-.206-.29-.463-1.098-1.362-2.135-3.217-2.975-5.314l-.325-.81-.257-.007c-.142-.008-.346 0-.46.022zM47.627 61.623c-.251.692-1.091 2.502-1.531 3.29a17.79 17.79 0 0 1-1.551 2.347c-.21.265-.366.486-.353.508.075.081 2.378-.522 3.61-.95 2.216-.765 5.007-2.266 7.025-3.775l.596-.449-.359-.088a58.86 58.86 0 0 0-5.717-1.126c-.596-.081-1.192-.162-1.32-.184-.238-.03-.238-.03-.4.427z" fill="#1E6AFF"/></g><defs><clipPath id="a"><path fill="#fff" d="M0 0h80v80H0z"/></clipPath></defs></svg>