<svg width="336" height="156" viewBox="0 0 336 156" fill="none" xmlns="http://www.w3.org/2000/svg">
<defs>
  <linearGradient id="blueGradient" x1="0%" y1="0%" x2="0%" y2="100%">
    <stop offset="0%" stop-color="#030B5F"/>
    <stop offset="100%" stop-color="#0C8CCC"/>
  </linearGradient>
</defs>
<path d="M176 6H4C1.79086 6 0 7.79086 0 10C0 12.2091 1.79086 14 4 14H176C178.209 14 180 12.2091 180 10C180 7.79086 178.209 6 176 6Z" fill="url(#blueGradient)"/>
<path d="M194 20C199.523 20 204 15.5228 204 10C204 4.47715 199.523 0 194 0C188.477 0 184 4.47715 184 10C184 15.5228 188.477 20 194 20Z" fill="url(#blueGradient)"/>
<path d="M106 40H4C1.79086 40 0 41.7909 0 44C0 46.2091 1.79086 48 4 48H106C108.209 48 110 46.2091 110 44C110 41.7909 108.209 40 106 40Z" fill="url(#blueGradient)"/>
<path d="M124 54C129.523 54 134 49.5228 134 44C134 38.4772 129.523 34 124 34C118.477 34 114 38.4772 114 44C114 49.5228 118.477 54 124 54Z" fill="url(#blueGradient)"/>
<path d="M316 74H4C1.79086 74 0 75.7909 0 78C0 80.2091 1.79086 82 4 82H316C318.209 82 320 80.2091 320 78C320 75.7909 318.209 74 316 74Z" fill="url(#blueGradient)"/>
<path d="M326 88C331.523 88 336 83.5228 336 78C336 72.4772 331.523 68 326 68C320.477 68 316 72.4772 316 78C316 83.5228 320.477 88 326 88Z" fill="url(#blueGradient)"/>
<path d="M236 110H4C1.79086 110 0 111.791 0 114C0 116.209 1.79086 118 4 118H236C238.209 118 240 116.209 240 114C240 111.791 238.209 110 236 110Z" fill="url(#blueGradient)"/>
<path d="M238 122C242.418 122 246 118.418 246 114C246 109.582 242.418 106 238 106C233.582 106 230 109.582 230 114C230 118.418 233.582 122 238 122Z" fill="url(#blueGradient)"/>
<path d="M146 148H4C1.79086 148 0 149.791 0 152C0 154.209 1.79086 156 4 156H146C148.209 156 150 154.209 150 152C150 149.791 148.209 148 146 148Z" fill="url(#blueGradient)"/>
</svg>
