<svg width="334" height="182" viewBox="0 0 334 182" fill="none" xmlns="http://www.w3.org/2000/svg">
<defs>
  <linearGradient id="blueGradient" x1="0%" y1="0%" x2="0%" y2="100%">
    <stop offset="0%" stop-color="#030B5F"/>
    <stop offset="100%" stop-color="#0C8CCC"/>
  </linearGradient>
</defs>
<path d="M154 66H326C328.209 66 330 67.7909 330 70C330 72.2091 328.209 74 326 74H154C151.791 74 150 72.2091 150 70C150 67.7909 151.791 66 154 66Z" fill="url(#blueGradient)"/>
<path d="M135 80C129.477 80 125 75.5228 125 70C125 64.4772 129.477 60 135 60C140.523 60 145 64.4772 145 70C145 75.5228 140.523 80 135 80Z" fill="url(#blueGradient)"/>
<path d="M224 100H326C328.209 100 330 101.791 330 104C330 106.209 328.209 108 326 108H224C221.791 108 220 106.209 220 104C220 101.791 221.791 100 224 100Z" fill="url(#blueGradient)"/>
<path d="M230 0.62207L326.291 0.12207C328.339 0.12207 330 1.91293 330 4.12207C330 6.33121 328.339 8.12207 326.291 8.12207H231.709C229.661 8.12207 228 6.33121 228 4.12207C228 1.91293 228.5 0.62207 230 0.62207Z" fill="url(#blueGradient)"/>
<path d="M174.729 33.7816L229.5 0.62207C229 1.62207 230.845 2.23882 232 4.12207C233.155 6.00532 234.498 7.1236 234 7.12257L180 39.6233C178.5 40.6233 178.229 40.2815 176.32 37.7174C175.166 35.8341 173.582 34.485 174.729 33.7816Z" fill="url(#blueGradient)"/>
<path d="M206 114C200.477 114 196 109.523 196 104C196 98.4772 200.477 94 206 94C211.523 94 216 98.4772 216 104C216 109.523 211.523 114 206 114Z" fill="url(#blueGradient)"/>
<path d="M12.1226 32.1221H177.873C179.046 32.1221 179 33.9129 179 36.1221C179 38.3312 178.998 40.1221 178.998 40.1221H12.1226C10.949 40.1221 9.99759 38.3312 9.99759 36.1221C9.99759 33.9129 10.949 32.1221 12.1226 32.1221Z" fill="url(#blueGradient)"/>
<path d="M10 46.1221C4.47715 46.1221 0 41.6449 0 36.1221C0 30.5992 4.47715 26.1221 10 26.1221C15.5228 26.1221 20 30.5992 20 36.1221C20 41.6449 15.5228 46.1221 10 46.1221Z" fill="url(#blueGradient)"/>
<path d="M98 132H330C332.209 132 334 133.791 334 136C334 138.209 332.209 140 330 140H98C95.7909 140 94 138.209 94 136C94 133.791 95.7909 132 98 132Z" fill="url(#blueGradient)"/>
<path d="M174 182C169.582 182 166 178.418 166 174C166 169.582 169.582 166 174 166C178.418 166 182 169.582 182 174C182 178.418 178.418 182 174 182Z" fill="url(#blueGradient)"/>
<path d="M188 170H330C332.209 170 334 171.791 334 174C334 176.209 332.209 178 330 178H188C185.791 178 184 176.209 184 174C184 171.791 185.791 170 188 170Z" fill="url(#blueGradient)"/>
</svg>
