<svg width="1180" height="297" viewBox="0 0 1180 297" fill="none" xmlns="http://www.w3.org/2000/svg">
<path d="M54.9702 51.19V110.08H99.0402V157.66H54.9702V229.42H100.99V277H0.370235V3.60999H99.8202V51.19H54.9702ZM161.501 3.99998L174.371 125.68H177.881L190.751 3.99998H245.741L202.841 201.34V277H148.241V201.34L106.901 3.99998H161.501ZM309.003 51.19V110.08H353.073V157.66H309.003V229.42H355.023V277H254.403V3.60999H353.853V51.19H309.003ZM365.224 71.47C365.224 47.29 371.464 29.35 383.944 17.65C396.424 5.94999 413.454 0.0999851 435.034 0.0999851C456.614 0.0999851 473.904 6.07999 486.904 18.04C499.904 30 506.404 47.81 506.404 71.47V209.53C506.404 229.81 501.724 245.8 492.364 257.5C483.004 268.94 470.264 276.22 454.144 279.34V286.36C454.144 289.22 454.534 291.17 455.314 292.21C456.094 293.25 457.914 293.77 460.774 293.77H491.194V333.55H463.894C455.834 333.55 448.814 332.9 442.834 331.6C437.114 330.3 432.304 328.09 428.404 324.97C424.504 321.85 421.514 317.56 419.434 312.1C417.614 306.9 416.704 300.27 416.704 292.21V279.73C400.584 276.61 387.974 269.33 378.874 257.89C369.774 246.19 365.224 230.07 365.224 209.53V71.47ZM419.824 213.82C419.824 221.36 421.384 226.56 424.504 229.42C427.884 232.28 431.654 233.71 435.814 233.71C439.974 233.71 443.614 232.28 446.734 229.42C450.114 226.56 451.804 221.36 451.804 213.82V67.57C451.804 60.03 450.114 54.83 446.734 51.97C443.614 49.11 439.974 47.68 435.814 47.68C431.654 47.68 427.884 49.11 424.504 51.97C421.384 54.83 419.824 60.03 419.824 67.57V213.82ZM565.212 3.99998L581.592 216.94H585.102L601.092 3.99998H655.692L625.272 277H539.862L510.612 3.99998H565.212ZM764.313 3.60999L793.563 276.61H738.963L732.723 209.14H708.933L703.083 276.61H648.483L678.903 3.60999H764.313ZM728.433 161.56L722.973 96.43H719.073L713.223 161.56H728.433ZM852.481 3.99998V213.43C852.481 220.97 854.041 226.3 857.161 229.42C860.281 232.28 863.791 233.71 867.691 233.71C871.591 233.71 874.971 232.28 877.831 229.42C880.951 226.3 882.511 220.97 882.511 213.43V3.99998H937.111V209.53C937.111 233.45 930.741 251.39 918.001 263.35C905.521 275.05 888.491 280.9 866.911 280.9C845.591 280.9 828.691 275.05 816.211 263.35C803.991 251.65 797.881 233.71 797.881 209.53V3.99998H852.481ZM1004.84 3.60999V229.42H1049.69V277H950.243V3.60999H1004.84ZM1179.14 51.19H1138.97V276.61H1084.37V51.19H1044.59V3.60999H1179.14V51.19Z" fill="url(#paint0_linear_196_3653)"/>
<defs>
<linearGradient id="paint0_linear_196_3653" x1="482.446" y1="-317.167" x2="482.446" y2="526.316" gradientUnits="userSpaceOnUse">
<stop stop-color="#C2C2C2"/>
<stop offset="1"/>
</linearGradient>
</defs>
</svg>
