<?xml version="1.0" encoding="UTF-8"?>
<svg id="Layer_1" xmlns="http://www.w3.org/2000/svg" version="1.1" viewBox="0 0 810 810">
  <!-- Generator: Adobe Illustrator 29.8.0, SVG Export Plug-In . SVG Version: 2.1.1 Build 160)  -->
  <defs>
    <style>
      .st0 {
        fill: #145cb7;
      }

      .st1 {
        fill: #1359ba;
      }
    </style>
  </defs>
  <g>
    <path class="st0" d="M228.11,584.62h-37.8v-47.68h37.8v9.53h-25.55v9.2h20.1v9.53h-20.1v9.88h25.55v9.53Z"/>
    <path class="st0" d="M228.1,536.94h12.95l11.25,23.16,11.23-23.16h12.95l-18.06,35.08v12.6h-12.25v-12.6l-18.06-35.08Z"/>
    <path class="st0" d="M316.98,584.62h-37.8v-47.68h37.8v9.53h-25.55v9.2h20.1v9.53h-20.1v9.88h25.55v9.53Z"/>
    <path class="st0" d="M355.81,595.52c-3.19.45-6.24.68-9.14.68s-5.29-.94-7.16-2.8c-1.86-1.86-2.78-4.33-2.78-7.41v-.69h-2.05c-4.76,0-8.22-1.07-10.38-3.22-2.16-2.16-3.24-5.62-3.24-10.4v-21.79c0-4.77,1.08-8.23,3.24-10.38,2.16-2.16,5.62-3.24,10.38-3.24h17.04c4.76,0,8.22,1.08,10.38,3.24,2.16,2.15,3.24,5.61,3.24,10.38v21.79c0,4.77-1.08,8.24-3.24,10.4-2.16,2.15-5.62,3.22-10.38,3.22h-3.41v.69c0,.68.22,1.25.68,1.7.46.45,1.03.68,1.71.68h5.11v7.16ZM353.07,549.89c0-2.73-1.36-4.09-4.07-4.09h-11.59c-2.72,0-4.07,1.36-4.07,4.09v21.79c0,2.73,1.36,4.09,4.07,4.09h11.59c2.71,0,4.07-1.36,4.07-4.09v-21.79Z"/>
    <path class="st0" d="M412.66,570.32l11.58-33.38h13.29l-18.06,47.68h-13.62l-18.04-47.68h13.28l11.58,33.38Z"/>
    <path class="st0" d="M449.43,584.62h-13.28l18.04-47.68h13.62l18.06,47.68h-13.29l-3.07-8.51h-17.02l-3.07,8.51ZM455.57,567.25h10.9l-5.46-16.01-5.44,16.01Z"/>
    <path class="st0" d="M519.92,536.94h12.27v34.74c0,4.77-1.08,8.24-3.24,10.4-2.16,2.15-5.62,3.22-10.38,3.22h-15.67c-4.77,0-8.24-1.07-10.4-3.22-2.15-2.16-3.22-5.62-3.22-10.4v-34.74h12.25v34.74c0,2.73,1.36,4.09,4.09,4.09h10.23c2.71,0,4.07-1.36,4.07-4.09v-34.74Z"/>
    <path class="st0" d="M552.61,575.09h24.87v9.53h-37.13v-47.68h12.25v38.15Z"/>
    <path class="st0" d="M605.39,584.62h-12.25v-38.15h-14.32v-9.53h40.87v9.53h-14.3v38.15Z"/>
  </g>
  <path class="st1" d="M487.81,272.12c61.41,16.74,79.92,94.97,44.71,144.53-2.8,3.93-9.12,9.7-10.96,13.04-1.29,2.35-2.36,7.11-3.64,10-25.29,57.24-91.02,80.84-149.83,64.77-31.52-8.61-62.82-32.25-75.8-62.75-1.6-3.75-2.97-10.58-4.58-13.42-1.6-2.82-7.46-8.36-9.95-11.87-36.24-50.93-16-126.13,44.93-145.23,11.32-27.19,35.22-48.66,64.16-55.29,43.51-9.97,84.6,16.47,100.95,56.21ZM473.49,271.17c-9.4-21.71-30.09-38.74-53.44-43.38-42.86-8.52-81.11,21.14-91.1,61.93,7.97-7.55,16-14.69,25.98-19.56,11.95-5.83,25.06-8.41,38.26-9.71,4.11-7.89,14.86-10.02,21.33-3.67.9.88,2.36,3.67,3.15,3.94,1.43.48,6.88.36,9.11.71,6,.94,12.88,2.39,18.64,4.27,2.54.83,12.22,5.47,13.62,5.47h14.45ZM490.33,335.06c-7.89-.45-12.68-8.61-10.15-16.02,1.81-5.28,5.3-2.72,1.72-9.1-11.61-20.71-37.46-35.74-61.05-37.13-5.62-.33-4.2,3.2-8.27,5.9-5.2,3.46-12.37,2.85-16.84-1.52-2.91-2.85-1.34-4.69-6.52-4.38-10.01.59-24.06,5.41-32.83,10.26-25.27,13.99-39.8,40.56-39.99,69.36,3.8-1.78,7.29-4.3,11.08-6.09,4.13-1.95,8.52-3.44,12.84-4.89.63-.98-.28-15.81.06-18.75.17-1.45.5-2.31,1.67-3.24,18.5-7.89,36.67-16.7,55.24-24.39,6.25-2.59,6.56-3.61,13.28-1.09,19.21,7.21,38.46,17.64,57.65,25.26,1.11.67,1.31,1.72,1.45,2.91.36,3-.56,18.33.06,19.3,5.38,1.89,10.52,4.44,15.57,7.07.97.5,5.04,3.36,5.36,3.36.35,0,.74-.89.82-1.35.28-1.61-.56-14.99-1.17-15.48ZM523.66,410.26c18.93-30.42,20.18-70.57-.96-100.21-11.33-15.88-28.93-26.8-48.67-27.96,6.52,5.96,12.87,12.87,17.35,20.56,1.6,2.75,3.03,7.45,4.44,9.6.48.72,2.61,1.54,3.59,2.55,3.36,3.46,3.98,7.98,2.6,12.46-.4,1.31-1.45,2.4-1.67,3.24-.62,2.29,1.93,13.56,2.05,17.33.11,3.45-1.18,10.45-.43,12.97.37,1.26,7.38,8.3,8.84,10.25,9.14,12.14,11.62,22.84,12.31,37.88.03.61-.35,1.5.54,1.35ZM318.03,285.9c-32.91,13.56-49.81,50.24-45.75,84.75,1.59,13.55,6.92,26.26,13.58,37.97l1.79-12.65c1.26-5.57,3.06-11.03,5.75-16.07,1.38-2.6,5.56-7.35,6.25-9.07.52-1.29-.45-5.52.09-8.05.7-3.29,4.12-5.42,4.56-6.9.74-2.51.28-10.61.66-14.06.84-7.58,3.27-16.34,5.98-23.47,1.08-2.84,4.35-8.3,4.8-10.48.48-2.34-.11-5.11.13-7.51.48-4.83,1.26-9.7,2.17-14.46ZM405.13,304.58l-52.78,22.99-.52,1.66c.86,19.69-2.72,39.9,4.67,58.65,7.85,19.91,30.6,35.29,48.99,44.61,20.67-9.9,43.86-27.51,50.27-50.61,3.57-12.86,4.26-38.15,3.03-51.57-.14-1.54-.21-2.91-1.81-3.64l-51.84-22.1ZM340.39,353.54c-.84-.9-15.26,6.31-16.4,7.87-1.27,1.75.03,3.21-.02,4.89-.05,1.84-1.18,4.99-2.11,6.62-.69,1.2-2.65,2.83-2.75,3.82-.19,1.81,4.28,12.47,5.37,14.81,11.42,24.68,34.47,41.9,57.9,54.46,3.01,1.61,13.17,7.17,15.78,7.62,1.27.22,5.26-1.69,8.51-1.36,2.8.29,4.84,2.39,6.09,2.61,2.44.43,24.57-14.1,27.94-16.58,20.86-15.41,39.6-35.77,46.69-61.31.67-2.4,2.53-9.15,2.41-11.22-.1-1.68-6.81-5.68-8.51-6.67-3.71-2.14-7.74-3.78-11.62-5.56,1.36,20.42-3.56,39.93-16.14,56.14-9.09,11.71-28.58,27-42.4,32.32-8.21,3.16-10.66.54-17.65-3.28-18.22-9.94-37.58-25.46-46.46-44.63-5.99-12.93-7.08-26.43-6.63-40.56ZM391.58,462.71c-.27-.44-8.75-3.91-9.46-3.94-4.5-.19-13.18,2.44-18.54,2.76-18.68,1.11-37.78-2.32-53.71-12.27,28.56,42.8,83.08,56.91,131.56,43.21,37.74-10.66,78.01-51.82,69.55-93.79-1.23-6.12-6.39-16.99-10.51-21.67-.47-.54-.61-.83-1.08-.03-.86,1.48-2.22,8.05-3.13,10.51-11.47,31.15-36.91,53.75-64.61,70.66-2.05,1.25-13.22,6.7-13.67,7.33-.35.49-.43,2.79-.82,3.82-5.24,13.77-23.09,11.61-25.43-2.64-.18-1.11.21-3.37-.15-3.95ZM365.49,449c-21.73-12.42-41.38-30.17-51.53-53.48-2.33-5.34-3.76-10.98-6.02-16.33-9.43,11.77-12.72,28.36-9.17,42.98,1.64,6.76,3.09,7.61,8.4,11.78,15.02,11.79,37.35,18.26,56.43,16.16.82-.09,1.68-.11,1.89-1.1Z"/>
  <path class="st1" d="M398.64,323.69c17.39-1.96,34.74,7.41,42.95,22.75,1.88,3.52,9.4,20.32-.31,17.22-2.95-.94-5.94-11.62-7.92-14.98-9.19-15.6-28.83-21.91-44.97-12.87-13.54,7.58-18.8,20.53-21.56,35.16-4.8,4.13-7.06-.26-6.81-5.17.97-19.29,19.2-39.91,38.62-42.1Z"/>
  <path class="st1" d="M436.81,391.59c-1.83,1.82-5.26.38-6.27-1.93-1.18-2.68-.85-9.88-1.31-13.42-1.66-12.73-7.63-26.94-22.08-28.65-19.68-2.33-28.11,17.31-26.93,34.03.28,4.01,3.68,13.17-.34,15.49-4.72,2.72-6.34-3.89-6.69-7.36-1.87-18.78,1.25-40.04,21.06-47.53,26.62-10.06,40.98,15.66,43.23,38.33.25,2.54,1.08,9.3-.67,11.05Z"/>
  <path class="st1" d="M402.45,353.68c20.95-2.56,25.12,27.49,21.59,42.32-4.43,18.59-30.43,19.89-36.61,2.96-2.32-6.35-3.18-24.78-1.51-31.27,1.83-7.14,9.28-13.13,16.53-14.01ZM402.43,360.76c-6.64,1.14-10.31,6.87-10.78,13.21-.34,4.51.36,15.6,1.35,19.96,2.85,12.49,20.46,13.1,24.18,1.21,2.21-7.07,1.07-19.93-1.96-26.7-2.55-5.69-6.09-8.83-12.78-7.68Z"/>
  <path class="st1" d="M402.43,364.58c4.6-.78,7.98,1.05,9.58,5.43,1.73,4.75,2.33,18.73.64,23.33-2.7,7.36-11.9,5.41-14.54-.7-1.34-3.1-2.58-18.89-1.95-22.34.51-2.8,3.51-5.25,6.27-5.72ZM404.26,390.57c.63.42,2.3.09,2.6-.84.64-1.96-.21-15.95-1.32-17.61-1.32-1.96-2.85-1.28-3.35.85.77,2.38.99,16.89,2.07,17.61Z"/>
</svg>