<svg width="291" height="296" viewBox="0 0 291 296" fill="none" xmlns="http://www.w3.org/2000/svg">
<path d="M228.05 58.3311C289.46 75.0711 307.97 153.301 272.76 202.861C269.96 206.791 263.64 212.561 261.8 215.901C260.51 218.251 259.44 223.011 258.16 225.901C232.87 283.141 167.14 306.741 108.33 290.671C76.8098 282.061 45.5099 258.421 32.5299 227.921C30.9299 224.171 29.5598 217.341 27.9498 214.501C26.3498 211.681 20.4899 206.141 17.9999 202.631C-18.2401 151.701 1.99985 76.5011 62.9298 57.4011C74.2498 30.2111 98.1499 8.74108 127.09 2.11108C170.6 -7.85892 211.69 18.5811 228.04 58.3211L228.05 58.3311ZM213.73 57.3811C204.33 35.6711 183.64 18.6411 160.29 14.0011C117.43 5.48108 79.1799 35.1411 69.1899 75.9311C77.1599 68.3811 85.1898 61.2411 95.1698 56.3711C107.12 50.5411 120.23 47.9611 133.43 46.6611C137.54 38.7711 148.29 36.6411 154.76 42.9911C155.66 43.8711 157.12 46.6611 157.91 46.9311C159.34 47.4111 164.79 47.2911 167.02 47.6411C173.02 48.5811 179.9 50.0311 185.66 51.9111C188.2 52.7411 197.88 57.3811 199.28 57.3811H213.73ZM230.57 121.271C222.68 120.821 217.89 112.661 220.42 105.251C222.23 99.9711 225.72 102.531 222.14 96.1511C210.53 75.4411 184.68 60.4111 161.09 59.0211C155.47 58.6911 156.89 62.2211 152.82 64.9211C147.62 68.3811 140.45 67.7711 135.98 63.4011C133.07 60.5511 134.64 58.7111 129.46 59.0211C119.45 59.6111 105.4 64.4311 96.6299 69.2811C71.3599 83.2711 56.8298 109.841 56.6398 138.641C60.4398 136.861 63.9299 134.341 67.7199 132.551C71.8499 130.601 76.2399 129.111 80.5599 127.661C81.1899 126.681 80.2799 111.851 80.6199 108.911C80.7899 107.461 81.1198 106.601 82.2898 105.671C100.79 97.7811 118.96 88.9711 137.53 81.2811C143.78 78.6911 144.09 77.6711 150.81 80.1911C170.02 87.4011 189.27 97.8311 208.46 105.451C209.57 106.121 209.77 107.171 209.91 108.361C210.27 111.361 209.35 126.691 209.97 127.661C215.35 129.551 220.49 132.101 225.54 134.731C226.51 135.231 230.58 138.091 230.9 138.091C231.25 138.091 231.64 137.201 231.72 136.741C232 135.131 231.16 121.751 230.55 121.261L230.57 121.271ZM263.9 196.471C282.83 166.051 284.08 125.901 262.94 96.2611C251.61 80.3811 234.01 69.4611 214.27 68.3011C220.79 74.2611 227.14 81.1711 231.62 88.8611C233.22 91.6111 234.65 96.3111 236.06 98.4611C236.54 99.1811 238.67 100.001 239.65 101.011C243.01 104.471 243.63 108.991 242.25 113.471C241.85 114.781 240.8 115.871 240.58 116.711C239.96 119.001 242.51 130.271 242.63 134.041C242.74 137.491 241.45 144.491 242.2 147.011C242.57 148.271 249.58 155.311 251.04 157.261C260.18 169.401 262.66 180.101 263.35 195.141C263.38 195.751 263 196.641 263.89 196.491L263.9 196.471ZM58.2698 72.1111C25.3598 85.6711 8.45984 122.351 12.5198 156.861C14.1098 170.411 19.4398 183.121 26.0998 194.831L27.8898 182.181C29.1498 176.611 30.9498 171.151 33.6398 166.111C35.0198 163.511 39.1998 158.761 39.8898 157.041C40.4098 155.751 39.4398 151.521 39.9798 148.991C40.6798 145.701 44.0998 143.571 44.5398 142.091C45.2798 139.581 44.8198 131.481 45.1998 128.031C46.0398 120.451 48.4698 111.691 51.1798 104.561C52.2598 101.721 55.5298 96.2611 55.9798 94.0811C56.4598 91.7411 55.8698 88.9711 56.1098 86.5711C56.5898 81.7411 57.3699 76.8711 58.2799 72.1111H58.2698ZM145.37 90.7911L92.5899 113.781L92.0698 115.441C92.9298 135.131 89.3498 155.341 96.7398 174.091C104.59 194.001 127.34 209.381 145.73 218.701C166.4 208.801 189.59 191.191 196 168.091C199.57 155.231 200.26 129.941 199.03 116.521C198.89 114.981 198.82 113.611 197.22 112.881L145.38 90.7811L145.37 90.7911ZM80.6299 139.751C79.7899 138.851 65.3698 146.061 64.2298 147.621C62.9598 149.371 64.2598 150.831 64.2098 152.511C64.1598 154.351 63.0298 157.501 62.0998 159.131C61.4098 160.331 59.4498 161.961 59.3498 162.951C59.1598 164.761 63.6299 175.421 64.7199 177.761C76.1399 202.441 99.1898 219.661 122.62 232.221C125.63 233.831 135.79 239.391 138.4 239.841C139.67 240.061 143.66 238.151 146.91 238.481C149.71 238.771 151.75 240.871 153 241.091C155.44 241.521 177.57 226.991 180.94 224.511C201.8 209.101 220.54 188.741 227.63 163.201C228.3 160.801 230.16 154.051 230.04 151.981C229.94 150.301 223.23 146.301 221.53 145.311C217.82 143.171 213.79 141.531 209.91 139.751C211.27 160.171 206.35 179.681 193.77 195.891C184.68 207.601 165.19 222.891 151.37 228.211C143.16 231.371 140.71 228.751 133.72 224.931C115.5 214.991 96.1398 199.471 87.2598 180.301C81.2698 167.371 80.1799 153.871 80.6299 139.741V139.751ZM131.82 248.921C131.55 248.481 123.07 245.011 122.36 244.981C117.86 244.791 109.18 247.421 103.82 247.741C85.1398 248.851 66.0398 245.421 50.1098 235.471C78.6698 278.271 133.19 292.381 181.67 278.681C219.41 268.021 259.68 226.861 251.22 184.891C249.99 178.771 244.83 167.901 240.71 163.221C240.24 162.681 240.1 162.391 239.63 163.191C238.77 164.671 237.41 171.241 236.5 173.701C225.03 204.851 199.59 227.451 171.89 244.361C169.84 245.611 158.67 251.061 158.22 251.691C157.87 252.181 157.79 254.481 157.4 255.511C152.16 269.281 134.31 267.121 131.97 252.871C131.79 251.761 132.18 249.501 131.82 248.921ZM105.73 235.211C83.9998 222.791 64.3498 205.041 54.1998 181.731C51.8698 176.391 50.4398 170.751 48.1798 165.401C38.7498 177.171 35.4598 193.761 39.0098 208.381C40.6498 215.141 42.0999 215.991 47.4099 220.161C62.4299 231.951 84.7599 238.421 103.84 236.321C104.66 236.231 105.52 236.211 105.73 235.221V235.211Z" fill="#1359BA"/>
<path d="M138.881 109.9C156.271 107.94 173.621 117.31 181.831 132.65C183.711 136.17 191.231 152.97 181.521 149.87C178.571 148.93 175.581 138.25 173.601 134.89C164.411 119.29 144.771 112.98 128.631 122.02C115.091 129.6 109.831 142.55 107.071 157.18C102.271 161.31 100.011 156.92 100.261 152.01C101.231 132.72 119.461 112.1 138.881 109.91V109.9Z" fill="#1359BA"/>
<path d="M177.049 177.801C175.219 179.621 171.789 178.181 170.779 175.871C169.599 173.191 169.929 165.991 169.469 162.451C167.809 149.721 161.839 135.511 147.389 133.801C127.709 131.471 119.279 151.111 120.459 167.831C120.739 171.841 124.139 181.001 120.119 183.321C115.399 186.041 113.779 179.431 113.429 175.961C111.559 157.181 114.679 135.921 134.489 128.431C161.109 118.371 175.469 144.091 177.719 166.761C177.969 169.301 178.799 176.061 177.049 177.811V177.801Z" fill="#1359BA"/>
<path d="M142.691 139.89C163.641 137.33 167.811 167.38 164.281 182.21C159.851 200.8 133.851 202.1 127.671 185.17C125.351 178.82 124.491 160.39 126.161 153.9C127.991 146.76 135.441 140.77 142.691 139.89ZM142.671 146.97C136.031 148.11 132.361 153.84 131.891 160.18C131.551 164.69 132.251 175.78 133.241 180.14C136.091 192.63 153.701 193.24 157.421 181.35C159.631 174.28 158.491 161.42 155.461 154.65C152.911 148.96 149.371 145.82 142.681 146.97H142.671Z" fill="#1359BA"/>
<path d="M142.669 150.79C147.269 150.01 150.649 151.84 152.249 156.22C153.979 160.97 154.579 174.95 152.889 179.55C150.189 186.91 140.989 184.96 138.349 178.85C137.009 175.75 135.769 159.96 136.399 156.51C136.909 153.71 139.909 151.26 142.669 150.79ZM144.499 176.78C145.129 177.2 146.799 176.87 147.099 175.94C147.739 173.98 146.889 159.99 145.779 158.33C144.459 156.37 142.929 157.05 142.429 159.18C143.199 161.56 143.419 176.07 144.499 176.79V176.78Z" fill="#1359BA"/>
</svg>
