<svg width="430" height="61" viewBox="0 0 430 61" fill="none" xmlns="http://www.w3.org/2000/svg">
<path d="M38.1105 48.6194H0.310547V0.939453H38.1105V10.4694H12.5605V19.6694H32.6606V29.1995H12.5605V39.0795H38.1105V48.6094V48.6194Z" fill="#145CB7"/>
<path d="M38.0996 0.939453H51.0496L62.2996 24.0994L73.5296 0.939453H86.4796L68.4196 36.0195V48.6194H56.1696V36.0195L38.1096 0.939453H38.0996Z" fill="#145CB7"/>
<path d="M126.98 48.6194H89.1797V0.939453H126.98V10.4694H101.43V19.6694H121.53V29.1995H101.43V39.0795H126.98V48.6094V48.6194Z" fill="#145CB7"/>
<path d="M165.811 59.5195C162.621 59.9695 159.571 60.1995 156.671 60.1995C153.771 60.1995 151.381 59.2595 149.511 57.3995C147.651 55.5395 146.731 53.0695 146.731 49.9895V49.2995H144.681C139.921 49.2995 136.461 48.2295 134.301 46.0795C132.141 43.9195 131.061 40.4595 131.061 35.6795V13.8895C131.061 9.11953 132.141 5.65952 134.301 3.50952C136.461 1.34952 139.921 0.269531 144.681 0.269531H161.721C166.481 0.269531 169.941 1.34952 172.101 3.50952C174.261 5.65952 175.341 9.11953 175.341 13.8895V35.6795C175.341 40.4495 174.261 43.9195 172.101 46.0795C169.941 48.2295 166.481 49.2995 161.721 49.2995H158.311V49.9895C158.311 50.6695 158.531 51.2395 158.991 51.6895C159.451 52.1395 160.021 52.3695 160.701 52.3695H165.811V59.5295V59.5195ZM163.071 13.8895C163.071 11.1595 161.711 9.7995 159.001 9.7995H147.411C144.691 9.7995 143.341 11.1595 143.341 13.8895V35.6795C143.341 38.4095 144.701 39.7695 147.411 39.7695H159.001C161.711 39.7695 163.071 38.4095 163.071 35.6795V13.8895Z" fill="#145CB7"/>
<path d="M222.661 34.3195L234.241 0.939453H247.531L229.471 48.6194H215.851L197.811 0.939453H211.091L222.671 34.3195H222.661Z" fill="#145CB7"/>
<path d="M259.43 48.6194H246.15L264.19 0.939453H277.81L295.87 48.6194H282.58L279.51 40.1094H262.49L259.42 48.6194H259.43ZM265.57 31.2495H276.47L271.01 15.2394L265.57 31.2495Z" fill="#145CB7"/>
<path d="M329.921 0.939453H342.191V35.6794C342.191 40.4494 341.111 43.9195 338.951 46.0795C336.791 48.2295 333.331 49.2994 328.571 49.2994H312.901C308.131 49.2994 304.661 48.2295 302.501 46.0795C300.351 43.9195 299.281 40.4594 299.281 35.6794V0.939453H311.531V35.6794C311.531 38.4094 312.891 39.7695 315.621 39.7695H325.851C328.561 39.7695 329.921 38.4094 329.921 35.6794V0.939453Z" fill="#145CB7"/>
<path d="M362.61 39.0895H387.48V48.6194H350.35V0.939453H362.6V39.0895H362.61Z" fill="#145CB7"/>
<path d="M415.39 48.6194H403.14V10.4694H388.82V0.939453H429.69V10.4694H415.39V48.6194Z" fill="#145CB7"/>
</svg>
